<svg width="44" height="44" viewBox="0 0 44 44" fill="none" xmlns="http://www.w3.org/2000/svg">
<path opacity="0.2" d="M29.6817 3.66663H14.3184C7.64508 3.66663 3.66675 7.64496 3.66675 14.3183V29.6633C3.66675 36.355 7.64508 40.3333 14.3184 40.3333H29.6634C36.3367 40.3333 40.3151 36.355 40.3151 29.6816V14.3183C40.3334 7.64496 36.3551 3.66663 29.6817 3.66663Z" fill="#624DE3"/>
<path d="M29.3334 20.625H23.3751V14.6666C23.3751 13.915 22.7517 13.2916 22.0001 13.2916C21.2484 13.2916 20.6251 13.915 20.6251 14.6666V20.625H14.6667C13.9151 20.625 13.2917 21.2483 13.2917 22C13.2917 22.7516 13.9151 23.375 14.6667 23.375H20.6251V29.3333C20.6251 30.085 21.2484 30.7083 22.0001 30.7083C22.7517 30.7083 23.3751 30.085 23.3751 29.3333V23.375H29.3334C30.0851 23.375 30.7084 22.7516 30.7084 22C30.7084 21.2483 30.0851 20.625 29.3334 20.625Z" fill="#624DE3"/>
</svg>
