<svg width="25" height="24" viewBox="0 0 25 24" fill="none" xmlns="http://www.w3.org/2000/svg">
<path d="M11.0833 4H4.08331C3.55288 4 3.04417 4.21071 2.6691 4.58579C2.29403 4.96086 2.08331 5.46957 2.08331 6V20C2.08331 20.5304 2.29403 21.0391 2.6691 21.4142C3.04417 21.7893 3.55288 22 4.08331 22H18.0833C18.6137 22 19.1225 21.7893 19.4975 21.4142C19.8726 21.0391 20.0833 20.5304 20.0833 20V13" stroke="#624DE3" stroke-width="2" stroke-linecap="round" stroke-linejoin="round"/>
<path d="M18.5833 2.49998C18.9811 2.10216 19.5207 1.87866 20.0833 1.87866C20.6459 1.87866 21.1855 2.10216 21.5833 2.49998C21.9811 2.89781 22.2046 3.43737 22.2046 3.99998C22.2046 4.56259 21.9811 5.10216 21.5833 5.49998L12.0833 15L8.08331 16L9.08331 12L18.5833 2.49998Z" stroke="#624DE3" stroke-width="2" stroke-linecap="round" stroke-linejoin="round"/>
</svg>
