<svg width="31" height="32" viewBox="0 0 31 32" fill="none" xmlns="http://www.w3.org/2000/svg">
<path d="M30.333 8.1619C30.042 8.30634 29.7031 8.33412 29.3907 8.23914C29.0783 8.14415 28.8181 7.93417 28.6672 7.65534C27.4871 5.42097 25.701 3.53248 23.4964 2.18831C23.359 2.10525 23.2401 1.99707 23.1463 1.86995C23.0525 1.74282 22.9858 1.59923 22.9499 1.44739C22.9141 1.29555 22.9097 1.13842 22.9372 0.984971C22.9647 0.831526 23.0234 0.684773 23.1101 0.553089C23.1967 0.421405 23.3096 0.307369 23.4423 0.217493C23.5749 0.127617 23.7247 0.0636609 23.8831 0.0292759C24.0415 -0.00510914 24.2055 -0.00924954 24.3656 0.0170911C24.5257 0.0434318 24.6788 0.0997377 24.8162 0.182794C27.3854 1.75956 29.4717 3.96211 30.8615 6.56519C31.0122 6.84413 31.0412 7.169 30.9421 7.4684C30.843 7.76781 30.6239 8.01725 30.333 8.1619ZM1.23576 8.29521C1.46225 8.29512 1.68436 8.23539 1.87785 8.12255C2.07134 8.00971 2.22877 7.84809 2.33295 7.65534C3.51298 5.42097 5.29911 3.53248 7.50367 2.18831C7.64106 2.10525 7.76004 1.99707 7.85381 1.86995C7.94757 1.74282 8.0143 1.59923 8.05017 1.44739C8.08605 1.29555 8.09037 1.13842 8.06289 0.984971C8.03541 0.831526 7.97666 0.684773 7.89001 0.553089C7.80335 0.421405 7.69049 0.307369 7.55785 0.217493C7.42522 0.127617 7.27541 0.0636609 7.11699 0.0292759C6.95857 -0.00510914 6.79463 -0.00924954 6.63454 0.0170911C6.47445 0.0434318 6.32134 0.0997377 6.18395 0.182794C3.61466 1.75956 1.52841 3.96211 0.138563 6.56519C0.0409561 6.74578 -0.00651508 6.9474 0.000718741 7.15066C0.00795257 7.35392 0.0696478 7.55198 0.179867 7.72577C0.290086 7.89956 0.445119 8.04323 0.630045 8.14296C0.814972 8.24269 1.02357 8.29512 1.23576 8.29521ZM29.9946 23.6906C30.2136 24.0506 30.3297 24.4595 30.3312 24.8763C30.3327 25.293 30.2195 25.7027 30.0031 26.0642C29.7867 26.4256 29.4746 26.7259 29.0984 26.9349C28.7223 27.1438 28.2953 27.254 27.8605 27.2543H21.5555C21.2717 28.5936 20.5136 29.7977 19.4096 30.6626C18.3056 31.5275 16.9236 32 15.4977 32C14.0719 32 12.6898 31.5275 11.5858 30.6626C10.4818 29.7977 9.72373 28.5936 9.43999 27.2543H3.13498C2.70047 27.2535 2.27385 27.1429 1.8981 26.9337C1.52236 26.7246 1.21075 26.4242 0.994682 26.0629C0.778611 25.7015 0.665703 25.292 0.667331 24.8755C0.668959 24.4591 0.785066 24.0503 1.00396 23.6906C2.39631 21.3873 3.13498 18.1125 3.13498 14.2199C3.13498 11.0773 4.43748 8.06331 6.75595 5.84111C9.07442 3.61891 12.2189 2.37049 15.4977 2.37049C18.7765 2.37049 21.9211 3.61891 24.2395 5.84111C26.558 8.06331 27.8605 11.0773 27.8605 14.2199C27.8605 18.111 28.5992 21.3859 29.9946 23.6906ZM18.9933 27.2543H12.0022C12.2583 27.9466 12.7319 28.5459 13.3578 28.9697C13.9838 29.3935 14.7314 29.6211 15.4977 29.6211C16.2641 29.6211 17.0117 29.3935 17.6376 28.9697C18.2636 28.5459 18.7372 27.9466 18.9933 27.2543ZM27.8605 24.8844C26.2162 22.1783 25.3879 18.5909 25.3879 14.2199C25.3879 11.7058 24.3459 9.29463 22.4912 7.51687C20.6364 5.73911 18.1208 4.74038 15.4977 4.74038C12.8747 4.74038 10.3591 5.73911 8.50431 7.51687C6.64953 9.29463 5.60753 11.7058 5.60753 14.2199C5.60753 18.5924 4.77614 22.1798 3.13498 24.8844H27.8605Z" fill="white"/>
</svg>
