<svg width="29" height="30" viewBox="0 0 29 30" fill="none" xmlns="http://www.w3.org/2000/svg">
<path d="M15.3271 11.6521C15.3271 9.24583 13.3583 7.27708 10.9521 7.27708C8.54583 7.27708 6.57708 9.24583 6.57708 11.6521C6.57708 14.0583 8.54583 16.0271 10.9521 16.0271C13.3583 16.0271 15.3271 14.0583 15.3271 11.6521ZM10.9521 13.1104C10.15 13.1104 9.49375 12.4542 9.49375 11.6521C9.49375 10.85 10.15 10.1937 10.9521 10.1937C11.7542 10.1937 12.4104 10.85 12.4104 11.6521C12.4104 12.4542 11.7542 13.1104 10.9521 13.1104ZM20.4312 16.0271C22.05 16.0271 23.3479 14.7292 23.3479 13.1104C23.3479 11.4917 22.05 10.1937 20.4312 10.1937C18.8125 10.1937 17.5 11.4917 17.5146 13.1104C17.5146 14.7292 18.8125 16.0271 20.4312 16.0271ZM14.5833 0C6.53333 0 0 6.53333 0 14.5833C0 22.6333 6.53333 29.1667 14.5833 29.1667C22.6333 29.1667 29.1667 22.6333 29.1667 14.5833C29.1667 6.53333 22.6333 0 14.5833 0ZM5.61458 22.0354C6.60625 21.2479 8.925 20.4167 10.9521 20.4167C11.0542 20.4167 11.1708 20.4312 11.2875 20.4312C11.6375 19.4979 12.2646 18.55 13.1833 17.7187C12.4476 17.5778 11.7011 17.4997 10.9521 17.4854C9.05625 17.4854 6.00833 18.1417 4.05417 19.5708C3.325 18.0542 2.91667 16.3625 2.91667 14.5687C2.91667 8.1375 8.15208 2.90208 14.5833 2.90208C21.0146 2.90208 26.25 8.1375 26.25 14.5687C26.25 16.3187 25.8562 17.9812 25.1562 19.4833C23.6979 18.6229 21.7146 18.2146 20.4312 18.2146C18.2146 18.2146 13.8687 19.3958 13.8687 22.1521V26.2062C12.2801 26.1159 10.7271 25.6989 9.3069 24.9812C7.88668 24.2636 6.62972 23.2608 5.61458 22.0354Z" fill="white"/>
</svg>
