<svg width="38" height="24" viewBox="0 0 38 24" fill="none" xmlns="http://www.w3.org/2000/svg">
<path d="M35.625 24C35.625 24 38 24 38 22C38 20 35.625 14 26.125 14C16.625 14 14.25 20 14.25 22C14.25 24 16.625 24 16.625 24H35.625ZM16.6772 22C16.6597 21.998 16.6423 21.9953 16.625 21.992C16.6274 21.464 17.0216 19.932 18.43 18.552C19.741 17.258 22.0448 16 26.125 16C30.2029 16 32.5066 17.26 33.82 18.552C35.2284 19.932 35.6203 21.466 35.625 21.992L35.606 21.996C35.595 21.9976 35.5839 21.9989 35.5728 22H16.6772ZM26.125 10C27.3848 10 28.593 9.57857 29.4838 8.82843C30.3746 8.07828 30.875 7.06087 30.875 6C30.875 4.93913 30.3746 3.92172 29.4838 3.17157C28.593 2.42143 27.3848 2 26.125 2C24.8652 2 23.657 2.42143 22.7662 3.17157C21.8754 3.92172 21.375 4.93913 21.375 6C21.375 7.06087 21.8754 8.07828 22.7662 8.82843C23.657 9.57857 24.8652 10 26.125 10ZM33.25 6C33.25 6.78793 33.0657 7.56815 32.7076 8.2961C32.3496 9.02405 31.8248 9.68549 31.1631 10.2426C30.5015 10.7998 29.7161 11.2417 28.8516 11.5433C27.9872 11.8448 27.0607 12 26.125 12C25.1893 12 24.2628 11.8448 23.3984 11.5433C22.5339 11.2417 21.7485 10.7998 21.0869 10.2426C20.4252 9.68549 19.9004 9.02405 19.5424 8.2961C19.1843 7.56815 19 6.78793 19 6C19 4.4087 19.7507 2.88258 21.0869 1.75736C22.4231 0.632141 24.2353 0 26.125 0C28.0147 0 29.8269 0.632141 31.1631 1.75736C32.4993 2.88258 33.25 4.4087 33.25 6ZM16.473 14.56C15.523 14.3081 14.5436 14.1425 13.5517 14.066C12.9944 14.0214 12.4348 13.9993 11.875 14C2.375 14 0 20 0 22C0 23.334 0.790875 24 2.375 24H12.388C12.0359 23.3756 11.8603 22.6911 11.875 22C11.875 19.98 12.7704 17.916 14.4638 16.192C15.0409 15.604 15.713 15.054 16.473 14.56ZM11.685 16C10.2794 17.7785 9.52005 19.8636 9.5 22H2.375C2.375 21.48 2.7645 19.94 4.18 18.552C5.47438 17.28 7.7235 16.04 11.685 16.002V16ZM3.5625 7C3.5625 5.4087 4.31317 3.88258 5.64936 2.75736C6.98556 1.63214 8.79783 1 10.6875 1C12.5772 1 14.3894 1.63214 15.7256 2.75736C17.0618 3.88258 17.8125 5.4087 17.8125 7C17.8125 8.5913 17.0618 10.1174 15.7256 11.2426C14.3894 12.3679 12.5772 13 10.6875 13C8.79783 13 6.98556 12.3679 5.64936 11.2426C4.31317 10.1174 3.5625 8.5913 3.5625 7ZM10.6875 3C9.42772 3 8.21954 3.42143 7.32874 4.17157C6.43794 4.92172 5.9375 5.93913 5.9375 7C5.9375 8.06087 6.43794 9.07828 7.32874 9.82843C8.21954 10.5786 9.42772 11 10.6875 11C11.9473 11 13.1555 10.5786 14.0463 9.82843C14.9371 9.07828 15.4375 8.06087 15.4375 7C15.4375 5.93913 14.9371 4.92172 14.0463 4.17157C13.1555 3.42143 11.9473 3 10.6875 3Z" fill="white"/>
</svg>
