<svg width="24" height="24" viewBox="0 0 24 24" fill="none" xmlns="http://www.w3.org/2000/svg">
<g clip-path="url(#clip0_10_63)">
<path d="M22.5 2.24473L16.4948 2.24475V0.75C16.4948 0.335625 16.1591 0 15.7448 0C15.3304 0 14.9948 0.335625 14.9948 0.75V2.24437H8.99475V0.75C8.99475 0.335625 8.65913 0 8.24475 0C7.83038 0 7.49475 0.335625 7.49475 0.75V2.24437H1.5C0.671625 2.24437 0 2.916 0 3.74437V22.4944C0 23.3227 0.671625 23.9944 1.5 23.9944H22.5C23.3284 23.9944 24 23.3227 24 22.4944V3.74437C24 2.91635 23.3284 2.24473 22.5 2.24473ZM22.5 22.4944H1.5V3.74437H7.49475V4.5C7.49475 4.91435 7.83038 5.25 8.24475 5.25C8.65913 5.25 8.99475 4.91435 8.99475 4.5V3.74475H14.9948V4.50037C14.9948 4.91475 15.3304 5.25037 15.7448 5.25037C16.1591 5.25037 16.4948 4.91475 16.4948 4.50037V3.74475H22.5V22.4944ZM17.25 11.9947H18.75C19.164 11.9947 19.5 11.6587 19.5 11.2447V9.74473C19.5 9.33073 19.164 8.99473 18.75 8.99473H17.25C16.836 8.99473 16.5 9.33073 16.5 9.74473V11.2447C16.5 11.6587 16.836 11.9947 17.25 11.9947ZM17.25 17.9944H18.75C19.164 17.9944 19.5 17.6587 19.5 17.2444V15.7444C19.5 15.3304 19.164 14.9944 18.75 14.9944H17.25C16.836 14.9944 16.5 15.3304 16.5 15.7444V17.2444C16.5 17.6591 16.836 17.9944 17.25 17.9944ZM12.75 14.9944H11.25C10.836 14.9944 10.5 15.3304 10.5 15.7444V17.2444C10.5 17.6587 10.836 17.9944 11.25 17.9944H12.75C13.164 17.9944 13.5 17.6587 13.5 17.2444V15.7444C13.5 15.3307 13.164 14.9944 12.75 14.9944ZM12.75 8.99473H11.25C10.836 8.99473 10.5 9.33073 10.5 9.74473V11.2447C10.5 11.6587 10.836 11.9947 11.25 11.9947H12.75C13.164 11.9947 13.5 11.6587 13.5 11.2447V9.74473C13.5 9.33035 13.164 8.99473 12.75 8.99473ZM6.75 8.99473H5.25C4.836 8.99473 4.5 9.33073 4.5 9.74473V11.2447C4.5 11.6587 4.836 11.9947 5.25 11.9947H6.75C7.164 11.9947 7.5 11.6587 7.5 11.2447V9.74473C7.5 9.33035 7.164 8.99473 6.75 8.99473ZM6.75 14.9944H5.25C4.836 14.9944 4.5 15.3304 4.5 15.7444V17.2444C4.5 17.6587 4.836 17.9944 5.25 17.9944H6.75C7.164 17.9944 7.5 17.6587 7.5 17.2444V15.7444C7.5 15.3307 7.164 14.9944 6.75 14.9944Z" fill="#624DE3"/>
</g>
<defs>
<clipPath id="clip0_10_63">
<rect width="24" height="24" fill="white"/>
</clipPath>
</defs>
</svg>
