<svg width="44" height="44" viewBox="0 0 44 44" fill="none" xmlns="http://www.w3.org/2000/svg">
<path d="M14.2083 12.8333C13.4489 12.8333 12.8333 13.4489 12.8333 14.2083V21.5416C12.8333 22.301 13.4489 22.9166 14.2083 22.9166H29.7917C30.551 22.9166 31.1667 22.301 31.1667 21.5416V14.2083C31.1667 13.4489 30.551 12.8333 29.7917 12.8333H14.2083ZM15.5833 20.1666V15.5833H28.4167V20.1666H15.5833Z" fill="white"/>
<path d="M32.5417 38.5C35.8323 38.5 38.5 35.8323 38.5 32.5417V11.4583C38.5 8.16763 35.8323 5.5 32.5417 5.5H11.4583C8.16763 5.5 5.5 8.16763 5.5 11.4583V32.5417C5.5 35.8323 8.16763 38.5 11.4583 38.5H32.5417ZM35.75 11.4583V32.5417C35.75 34.3136 34.3136 35.75 32.5417 35.75H11.4583C9.68642 35.75 8.25 34.3136 8.25 32.5417V11.4583C8.25 9.68642 9.68642 8.25 11.4583 8.25H32.5417C34.3136 8.25 35.75 9.68642 35.75 11.4583Z" fill="white"/>
</svg>
